{
	"asset":{
		"generator":"Khronos glTF Blender I/O v4.3.47",
		"version":"2.0"
	},
	"scene":0,
	"scenes":[
		{
			"name":"Scene",
			"nodes":[
				0
			]
		}
	],
	"nodes":[
		{
			"mesh":0,
			"name":"Cylinder",
			"translation":[
				0,
				0.15443231165409088,
				0
			]
		}
	],
	"materials":[
		{
			"doubleSided":true,
			"name":"coin",
			"pbrMetallicRoughness":{
				"baseColorFactor":[
					0.800315260887146,
					0.46895018219947815,
					0.039090756326913834,
					1
				],
				"metallicFactor":0,
				"roughnessFactor":0
			}
		},
		{
			"doubleSided":true,
			"name":"heads",
			"pbrMetallicRoughness":{
				"baseColorFactor":[
					0.800315260887146,
					0.46895018219947815,
					0.039090756326913834,
					1
				],
				"metallicFactor":0,
				"roughnessFactor":0
			}
		},
		{
			"doubleSided":true,
			"name":"tails",
			"pbrMetallicRoughness":{
				"baseColorFactor":[
					0.800315260887146,
					0.46895018219947815,
					0.039090756326913834,
					1
				],
				"metallicFactor":0,
				"roughnessFactor":0
			}
		}
	],
	"meshes":[
		{
			"name":"Cylinder",
			"primitives":[
				{
					"attributes":{
						"POSITION":0,
						"NORMAL":1,
						"TEXCOORD_0":2
					},
					"indices":3,
					"material":0
				},
				{
					"attributes":{
						"POSITION":4,
						"NORMAL":5,
						"TEXCOORD_0":6
					},
					"indices":7,
					"material":1
				},
				{
					"attributes":{
						"POSITION":8,
						"NORMAL":9,
						"TEXCOORD_0":10
					},
					"indices":11,
					"material":2
				}
			]
		}
	],
	"accessors":[
		{
			"bufferView":0,
			"componentType":5126,
			"count":576,
			"max":[
				1,
				0.07959164679050446,
				1
			],
			"min":[
				-1,
				-0.07959164679050446,
				-1
			],
			"type":"VEC3"
		},
		{
			"bufferView":1,
			"componentType":5126,
			"count":576,
			"type":"VEC3"
		},
		{
			"bufferView":2,
			"componentType":5126,
			"count":576,
			"type":"VEC2"
		},
		{
			"bufferView":3,
			"componentType":5123,
			"count":1152,
			"type":"SCALAR"
		},
		{
			"bufferView":4,
			"componentType":5126,
			"count":32,
			"max":[
				0.8925615549087524,
				0.0015079174190759659,
				0.8925615549087524
			],
			"min":[
				-0.8925615549087524,
				0.0015079174190759659,
				-0.8925615549087524
			],
			"type":"VEC3"
		},
		{
			"bufferView":5,
			"componentType":5126,
			"count":32,
			"type":"VEC3"
		},
		{
			"bufferView":6,
			"componentType":5126,
			"count":32,
			"type":"VEC2"
		},
		{
			"bufferView":7,
			"componentType":5123,
			"count":90,
			"type":"SCALAR"
		},
		{
			"bufferView":8,
			"componentType":5126,
			"count":32,
			"max":[
				0.8925615549087524,
				-0.0015079174190759659,
				0.8925615549087524
			],
			"min":[
				-0.8925615549087524,
				-0.0015079174190759659,
				-0.8925615549087524
			],
			"type":"VEC3"
		},
		{
			"bufferView":9,
			"componentType":5126,
			"count":32,
			"type":"VEC3"
		},
		{
			"bufferView":10,
			"componentType":5126,
			"count":32,
			"type":"VEC2"
		},
		{
			"bufferView":11,
			"componentType":5123,
			"count":90,
			"type":"SCALAR"
		}
	],
	"bufferViews":[
		{
			"buffer":0,
			"byteLength":6912,
			"byteOffset":0,
			"target":34962
		},
		{
			"buffer":0,
			"byteLength":6912,
			"byteOffset":6912,
			"target":34962
		},
		{
			"buffer":0,
			"byteLength":4608,
			"byteOffset":13824,
			"target":34962
		},
		{
			"buffer":0,
			"byteLength":2304,
			"byteOffset":18432,
			"target":34963
		},
		{
			"buffer":0,
			"byteLength":384,
			"byteOffset":20736,
			"target":34962
		},
		{
			"buffer":0,
			"byteLength":384,
			"byteOffset":21120,
			"target":34962
		},
		{
			"buffer":0,
			"byteLength":256,
			"byteOffset":21504,
			"target":34962
		},
		{
			"buffer":0,
			"byteLength":180,
			"byteOffset":21760,
			"target":34963
		},
		{
			"buffer":0,
			"byteLength":384,
			"byteOffset":21940,
			"target":34962
		},
		{
			"buffer":0,
			"byteLength":384,
			"byteOffset":22324,
			"target":34962
		},
		{
			"buffer":0,
			"byteLength":256,
			"byteOffset":22708,
			"target":34962
		},
		{
			"buffer":0,
			"byteLength":180,
			"byteOffset":22964,
			"target":34963
		}
	],
	"buffers":[
		{
			"byteLength":23144,
			"uri":"coin_mesh.bin"
		}
	]
}
